<?xml version="1.0" encoding="UTF-8"?>
<svg id="Layer_1" data-name="Layer 1" xmlns="http://www.w3.org/2000/svg" version="1.1" viewBox="0 0 128 128">
  <defs>
    <style>
      .cls-1 {
        fill: #000;
      }

      .cls-1, .cls-2 {
        stroke-width: 0px;
      }

      .cls-2 {
        fill: #fff;
      }
    </style>
  </defs>
  <g id="WuyCAc">
    <g>
      <path class="cls-1" d="M62.5,124.9c0,0,.2,0,.2,0,0,0,.1,0,.2,0-1.4,0-2.6-.4-3.9-1-.4-.2-.8-.3-1.2-.3-.5,0-1,0-1.5,0-1.8,0-3.6-.2-5.4-.5-2.1-.4-4.1-1.1-5.8-2.6-.1,0-.3-.1-.4-.1-1.2,0-2.4,0-3.6,0-1.8-.1-3.4-.7-4.8-1.7-3-2.2-4.4-5.2-4.6-8.8,0-1.4.2-2.7.5-4,0-.2,0-.4-.1-.6-.5-.6-1-1.2-1.4-1.9-1-1.4-1.6-3-2.2-4.6-.9-2.1-1.8-4.1-3.4-5.7-.2-.2-.3-.5-.3-.8,0-.8,0-1.6-.2-2.4-.3-1.2-1-2.2-1.8-3.1-.4-.5-.9-1-1.3-1.5-.4-.5-.4-1.1,0-1.6.1-.1.3-.3.4-.4,1.5-1.6,2.4-3.4,2.4-5.5,0-4,0-8.1,0-12.1,0-.4-.1-.9-.3-1.3-.5-.8-1-1.6-1.6-2.4-1.6-1.9-3.5-3.5-5.4-5.1-.8-.7-1.7-1.4-2.4-2.2-.8-.8-1.2-1.9-1.6-2.9-.9-2.3-1.6-4.6-1.9-7.1,0-.5-.1-.9-.2-1.4,0-.6,0-1.3,0-1.9,0-.5.1-1,.2-1.5.2-1.2.7-2.2,1.2-3.2,0-.2.1-.3.1-.5,0-1.1-.2-2.2-.2-3.3,0-1.9-.2-3.9-.2-5.8,0-4.3-.1-8.5.5-12.7.2-1.6.6-3.2,1.1-4.7.7-1.8,1.6-3.5,3.2-4.7.9-.7,1.9-1.3,3.1-1.5,1.3-.2,2.6-.1,3.9.2,1.8.4,3.4,1.3,4.9,2.3,2.9,1.8,5.5,4.1,7.8,6.7,2.8,3,5.3,6.4,7.4,9.9,1.7,2.8,3.4,5.7,4.3,8.9.3,1.2,1.1,2.2,1.7,3.2.4.7.9,1.4,1.3,2,2.2-.6,4.4-1.1,6.7-1.4,2.8-.3,5.6-.5,8.4-.3,1.9.1,3.7.3,5.6.5,1.6.2,3.2.6,4.8,1,.3,0,.5,0,.6-.2.6-1.1,1.3-2.1,1.9-3.2.3-.6.5-1.3.8-1.9.4-1.2.8-2.4,1.3-3.5,2.6-5.3,5.8-10.3,9.8-14.6,2.2-2.5,4.6-4.7,7.4-6.6,1.7-1.1,3.4-2.1,5.4-2.7.6-.2,1.3-.3,1.9-.4.5,0,1,0,1.5,0,0,0,0,0,.1,0,2,.2,3.6,1.3,4.9,2.8,1.2,1.4,1.9,3,2.4,4.8.9,3.4,1.2,6.9,1.3,10.4,0,1.9,0,3.9,0,5.8,0,1.6-.2,3.3-.2,4.9,0,1.2,0,2.5,0,3.7,0,.5,0,1,.3,1.4.6,1.6,1,3.3,1.1,5,.2,3.2-.3,6.4-1.5,9.4-.7,1.8-1.7,3.4-3.3,4.6-.6.5-1.2,1-1.9,1.5-1.4,1.2-2.8,2.5-4,4.1-1.3,1.7-2,3.6-2,5.8,0,3.5,0,7,0,10.5,0,.5,0,.9.2,1.3.4,1,.7,2,1.4,2.8.4.5.8.9,1.2,1.4.5.6.5,1,.2,1.7,0,.1-.2.3-.3.4-.5.5-.9,1.1-1.4,1.6-.5.5-.7,1.1-.7,1.7,0,1.1.2,2.3.3,3.4,0,.2,0,.3-.2.5-1.5.7-2.5,1.8-3.3,3.2-.5.9-.8,1.8-1.2,2.7-.4.9-.8,1.8-1.2,2.8-.6,1.5-1.7,2.7-2.7,3.8,0,0-.1.3-.1.4.1.8.3,1.5.4,2.3.1,1.4.1,2.7-.2,4.1-.6,2.4-1.7,4.4-3.6,5.9-2.6,2-5.6,2.5-8.8,2.1-.5,0-.9,0-1.2.3-1.6,1.2-3.4,1.9-5.3,2.3-2.2.5-4.4.6-6.6.7-.8,0-1.6,0-2.3.4-1.2.5-2.4,1-3.7,1h.5M44.8,96.6h0c.2-.6.5-1.1.7-1.6.8-1.7,1.8-3.3,2.9-4.8,1.5-1.9,3.2-3.7,5-5.4,1.3-1.2,2.7-2.2,4.3-2.8,3.4-1.4,7-1.6,10.6-.9,2.8.5,5.2,1.8,7.3,3.7,1.2,1.1,2,2.3,2.9,3.6,1.1,1.6,2.3,3,3.7,4.3,1,.9,2,1.8,3,2.7.8.8,1.4,1.8,1.6,3,.3,1.3-.7,1.8-1.6,1.6-.3,0-.6-.2-.8-.3-1.1-.5-2.1-1.3-3-2.1-1.6-1.4-3.4-2.6-5.3-3.5-.5-.2-.8-.2-1.2,0-.4.3-.8.6-1,1.1-.6,2-1.8,3.5-3.6,4.5-1.4.8-3,1.5-4.4,2.2-.2,0-.3.2-.3.4,0,.8,0,1.6.1,2.4,0,.6.3,1.1.8,1.5.4.3.9.6,1.4.8,2.8,1.1,5.2,2.8,7.6,4.7,1.6,1.4,3.3,2.7,5,4.1,1.1.9,2.4,1.6,3.8,2,1.5.4,3.1.3,4.6,0,3.3-.8,5.9-3.9,6.1-7.8,0-1.2-.1-2.4-.4-3.6-.2-.8-.3-1.7-.7-2.5-.5-1-1.1-1.9-1.6-2.8-1.1-1.8-2.1-3.8-2.6-5.9-.5-2-.5-4,.5-5.9,0-.1,0-.3.2-.4-.1,0-.2,0-.3-.1-1.5-.4-2.7-1.2-3.8-2.2-.7-.7-1.4-1.4-2.1-2.1-.3-.3-.6-.6-1-.9,0,0,0,0,0,0,0,.1.2.3.2.4.4.7.9,1.4,1.3,2.1,1.3,2.2,2.4,4.5,3.1,7,.6,2,1.2,4,1.8,5.9.6,2,1.6,3.7,3.4,4.9.3.2.5.4.8.6,0,0,0,0,0,0-.1,0-.2,0-.3-.1-.6-.4-1.2-.7-1.9-1.1-1.3-.7-2.1-1.8-2.6-3.1-.6-1.6-1.2-3.3-1.8-4.9-.9-2.7-1.9-5.4-3.3-8-2-3.4-4.6-6.2-8.1-8.1-2.9-1.6-6.1-2.4-9.4-2.6-3.3-.2-6.5.1-9.6,1.1-3.5,1.1-6.5,3.1-8.9,5.9-1.7,1.9-2.9,4.2-3.9,6.5-.9,2.3-1.6,4.6-2.3,6.9-.8,2.8-1.9,5.5-3.5,7.9-.3.4-.6.8-.9,1.2,0,0,0,0,0,0,0,0,0-.1,0-.2.6-1.6,1.3-3.1,1.8-4.7.6-1.9,1.1-3.9,1.7-5.9,0-.2,0-.5,0-.7,0,0,0,0-.1,0-.1.2-.3.5-.4.7-.9,2.1-1.9,4.1-3.1,6-.6.9-1.3,1.8-1.9,2.7-.1.2-.3.4-.4.7-.3,1.5-.6,3-.7,4.5,0,3,1,5.4,3.4,7.1,1.1.8,2.4,1.4,3.8,1.5.8,0,1.6,0,2.3,0,1,0,2-.2,2.9-.6,1.3-.6,2.5-1.5,3.7-2.4,2-1.6,4-3.2,6-4.7,1.8-1.4,3.7-2.5,5.8-3.3.6-.2,1.1-.6,1.6-1.1,0,0,.1-.2.1-.3,0-.8-.1-1.6-.1-2.4,0-.7-.3-1.2-1-1.5-.2,0-.3-.2-.5-.2-1.3-.6-2.6-1.1-3.8-1.8-1.2-.6-2.3-1.5-3-2.7-.3-.5-.5-1.1-.4-1.7,0-.4,0-.7-.4-.9-.6-.4-1.1-.9-1.6-1.4-.8-.7-1.1-1.6-1.1-2.6,0-.6,0-1.3-.1-1.9-2.9,2.3-4.9,5.3-6.8,8.4ZM60.2,37.7c0,0,0,.2,0,.3-.1.3-.2.6-.3.9-1,2-1.9,4.1-2.9,6.1-.8,1.6-1.9,3.1-3.2,4.4-.6.6-1.1,1.2-1.6,1.9-1,1.3-1.3,2.8-1,4.4.2,1.2.7,2.4,1.2,3.5,1.1,2.4,2.4,4.8,3.3,7.4.2.7.5,1.4.6,2.1.1,1.2,0,2.4,0,3.6,0,.2,0,.4,0,.7-.4,1.4-1,2.7-1.8,3.8-.1.2-.2.3-.3.5,0,0,0,0,0,0,5.8-2.2,11.6-2.3,17.6-1,0-.2,0-.4,0-.6,0-1.7-.2-3.3-.4-5-.2-1.9-.2-3.7.4-5.6.5-1.8,1-3.5,1.5-5.3.5-1.7.6-3.4,0-5.1-.4-1.4-1.2-2.6-2.2-3.7-1.5-1.7-3.1-3.5-4.6-5.3-1.5-1.8-2.5-3.9-2.2-6.3,0-.6.2-1.1.5-1.6.1-.2.2-.3.5-.2,2.5.2,4.9.3,7.4.5.4,0,.8,0,1.3.1,0,0,0,0,0-.1-6.4-1.2-12.8-1.4-19.1,0h0c1.8-.1,3.7-.3,5.5-.5ZM33.5,38.6s0,0,0,0c.1,0,.3,0,.4,0,.5,0,1,.2,1.5.3.2,0,.3,0,.3-.2.3-1.4.7-2.7,1-4.1.2-1,.4-2,.5-3.1.1-1.1-.3-2.2-.7-3.3-1.2-3-2.7-5.8-4.4-8.6-1.2-1.9-2.6-3.8-4.3-5.4-1-.9-2-1.7-3.3-2.1-.9-.3-1.7-.2-2.4.4-.3.3-.6.6-.8.9-.5.8-.9,1.7-1.2,2.6-.7,1.8-.9,3.8-1.2,5.8-.3,2.6-.5,5.2-.8,7.8-.2,2.2-.1,4.3.4,6.4.4,1.6.8,3.1,1.3,4.7,0,.2,0,.3.1.5,0,0,0,0-.1,0-.1-.2-.2-.3-.3-.5-.4-.4-.9-.9-1.3-1.3-.1-.1-.3-.2-.5-.3,0,.2-.1.3-.1.5,0,1.1,0,2.2.3,3.3.5,2,1.4,3.9,2.4,5.8.5.8.9,1.7,1.6,2.3.5.5,1,1,1.5,1.5.5.5,1.1,1,1.7,1.5.2.1.3.2.5,0,.6-.6,1.1-1.2,1.7-1.8,0,0,.1-.1.3-.3-.2,0-.4,0-.5,0-.2,0-.3,0-.5,0,0-.2,0-.4.1-.5.2-.3.5-.6.7-.9,1.3-1.4,2.8-2.5,4.3-3.7.7-.5.7-.5.4-1.3-.3-.8-.7-1.5-1.1-2.3,0-.2-.2-.4-.3-.7,1.7.1,3.2.8,4.7,1.4.2-.8.3-1.5.5-2.2,0,0,0-.2,0-.3-.5-.8-1.1-1.5-1.6-2.3-.2-.3-.4-.5-.6-.8ZM108.5,41.3s0,0,0,0c0-.1,0-.2,0-.3.3-1.3.6-2.7,1-4,.4-1.7.8-3.4.7-5.1,0-1.8-.3-3.5-.4-5.3-.2-2.1-.5-4.2-.7-6.3-.2-1.6-.6-3.3-1.2-4.8-.4-1.1-1-2.1-1.8-2.8-.7-.6-1.4-.9-2.3-.6-1.2.4-2.2,1.1-3.1,1.9-1.7,1.6-3.2,3.5-4.4,5.5-2,3.1-3.6,6.4-4.8,9.9-.4,1-.5,2-.3,3.1.3,1.3.6,2.6.9,3.9.2.8.5,1.6.7,2.4,0,.3.2.3.5.3.4-.1.8-.2,1.2-.3.3,0,.5,0,.8-.1,0,0,0,0,0,0-.1.2-.3.3-.4.5-.8.8-1.5,1.7-2,2.8-.1.3-.1.6-.1.9,0,.3.1.7.2,1,.1.4.1.4.5.3.7-.3,1.4-.6,2.1-.8.7-.3,1.5-.4,2.3-.2,0,0,0,.1,0,.1-.8.8-1.1,1.9-1.5,3-.2.5-.2.5.3.8,1.3.9,2.5,1.8,3.6,2.9.6.6,1.2,1.3,1.8,2,0,0,.1.3,0,.3,0,0-.2,0-.3,0-.3,0-.6,0-.9-.1.6.6,1.3,1.2,1.9,1.9.6.7,1,1.5,1.4,2.3.3-.4.7-.8,1.1-1.2-.2,0-.3,0-.4,0-.4-.1-.8-.2-1.1-.3,0,0-.1-.1-.1-.2,0,0,0-.1.1-.2.2-.1.4-.2.6-.4,1.1-1,2.1-2.1,2.8-3.3,1.8-2.8,3.1-5.9,3.5-9.3,0-.5,0-1.1,0-1.6,0-.3-.2-.4-.4-.1-.4.3-.7.7-1.1,1.1-.3.3-.5.6-.8.8ZM49.1,119.5c1.6.8,3.3,1.3,5,1.4,1.4,0,2.8,0,4.2.1.6,0,1.1.1,1.6.4.4.2.7.4,1.1.5,1.2.4,2.4.4,3.6.4,1.1,0,2.1-.2,3.1-.8.7-.4,1.5-.6,2.3-.6,1.6,0,3.3,0,4.9-.2,1.5-.2,3-.6,4.4-1.2,1-.5.8-.5.2-1.1-1.6-1.5-3.4-2.6-5.6-3.2-1.9-.5-3.9-1-5.8-1.5-1.7-.5-3.5-1-5.3-1.1-2.7-.2-5.2.4-7.5,1.9-2.2,1.4-4.1,3.3-6.2,5ZM90.5,81.9c1.6.1,3.2-.6,4.4-2.2,1.5-1.9,2-4.2,2.1-6.5,0-.2-.1-.5-.3-.6-1.5-1.3-3.2-2-5.2-2.1-1.4,0-2.7.5-3.8,1.3-1.3.9-2.2,2.2-2.9,3.6q-.6,1.3-.1,2.6c.4,1.1,1,2.1,1.9,2.8,1,.8,2.3,1.1,3.9,1.1ZM38.5,81.8s0,0,0,0c.7,0,1.4,0,2.1-.3,1.1-.3,1.9-1.1,2.6-2,.6-.9.9-1.9,1.3-2.8,0,0,0-.2,0-.3-.6-1.3-1.3-2.6-2.3-3.6-1.6-1.7-3.6-2.6-6-2.3-1.5.2-2.8.9-4,1.9-.4.3-.5.6-.5,1.2.2,1.9.6,3.6,1.5,5.3.7,1.2,1.6,2.2,2.9,2.7.8.3,1.6.3,2.5.3ZM26.8,7.1h0c0,.1.2.2.2.3.6.4,1.3.9,1.9,1.3,2.3,1.8,4.4,3.9,6.3,6.2,2,2.4,3.8,5,5.4,7.7,1.4,2.3,2.7,4.7,4,7.1.9,1.8,1.5,3.7,2.3,5.6.4.9.7,1.8,1.1,2.7,0,0,0,0,0,0,.1-.2.2-.3.4-.5.2-.2.3-.5.1-.8-.2-.3-.3-.6-.4-.9-.9-1.9-2-3.8-2.8-5.8-.5-1.4-1.3-2.7-2-4-2.9-5.4-6.4-10.3-10.9-14.5-1.6-1.5-3.2-2.9-5.1-4.1-.2-.1-.4-.2-.5-.3ZM80.4,37.9c0-.1,0-.2.1-.3.7-1.9,1.4-3.9,2.2-5.8,2.4-5.9,5.7-11.3,9.7-16.3,1.8-2.2,3.8-4.3,6-6.1.9-.8,1.9-1.4,2.9-2.1,0,0,.1-.1.2-.2-.2,0-.3,0-.4.2-.9.6-1.8,1.2-2.7,1.9-3.2,2.5-5.9,5.4-8.3,8.7-2.4,3.2-4.5,6.7-6.3,10.3-.4.8-.7,1.6-1,2.4-.2.4-.2.9-.5,1.3-.7,1.4-1.5,2.9-2.2,4.3-.4.8-.4.9.3,1.6,0,0,0,0,.2.1ZM28.6,92.3c0,0,0-.1,0-.2-.4-.5-.5-1-.6-1.6-.3-1.8-1.1-3.4-2.3-4.7-.3-.3-.6-.6-.8-.9-.3-.3-.3-.5.1-.7.3-.2.7-.3,1.1-.4.1,0,.3-.2.3-.2,0-.4.2-.6.5-.8,0,0,.2-.3.1-.3-.3-.5,0-1,0-1.4.3-.9.5-1.9.5-2.9,0-1.1,0-2.1,0-3.2-.2-2.7-.1-5.3,0-8,0-.6,0-1.3,0-1.9,0,.3,0,.7-.1,1-.1,1.6-.3,3.3-.3,4.9,0,2.2,0,4.4-.1,6.6,0,1.8-.6,3.5-1.5,5.1-.3.6-.7,1.1-1.1,1.6-.2.4-.2.5.2.8.1,0,.2.2.3.3.9.9,1.5,2,2,3.2.3.8.5,1.7.5,2.6,0,.6.7,1.2,1.3,1.3ZM101.5,65.1s0,0,0,0c0,.8.1,1.7.2,2.5.2,3,.2,5.9,0,8.9,0,.9,0,1.9,0,2.8,0,.7.4,1.5.6,2.2,0,.2.1.5,0,.7-.1.3,0,.5.2.7.1.1.3.3.3.5,0,.3.1.4.3.4.6,0,1.1.4,1.5.8,0,.1-.2.2-.3.3-.7.7-1.2,1.5-1.8,2.4-.6,1-.7,2.1-.5,3.2,0,.5,0,1-.4,1.3,0,0,0,0,0,0,.3,0,.5-.1.8-.2.4,0,.4-.1.4-.5,0-.6-.2-1.3-.2-1.9,0-1.7.4-3.1,1.8-4.1.5-.4.5-.5.1-1-1.1-1.3-1.8-2.9-2.2-4.6-.3-1.4-.3-2.8-.3-4.2,0-2.7,0-5.5-.3-8.2,0-.7-.2-1.4-.3-2.1ZM73.9,86.3s0,0,0,0c0,0,0,0,0,0,0,0,0-.2-.2-.2-.6-.9-1.5-1.5-2.4-2-1.7-.9-3.6-1.4-5.5-1.6-2.3-.2-4.6,0-6.8.9-1.5.6-2.7,1.4-3.7,2.6,0,0-.1.2-.2.3.1,0,.2-.1.3-.2.8-.7,1.7-1.3,2.6-1.8,1.4-.7,3-1.1,4.6-1.2,1.7,0,3.4-.2,5.1.2,1.9.4,3.7,1.1,5.2,2.3.3.2.6.5.9.8ZM42.3,82.3c1.5-.4,2.9-1,4.2-1.9-.4-.7-.8-1.4-1.2-2.1,0,0,0,0-.1,0-.6,1.6-1.5,3-2.9,4ZM86.4,82.3c-1.4-1.1-2.3-2.5-2.9-4.2-.4.8-.8,1.6-1.2,2.3,1.2.9,2.6,1.5,4,1.9ZM99.2,78s0,0,0,0c0,.2-.2.4-.3.6-.4.8-.7,1.6-1.2,2.4-1.1,2-2.8,3.2-5.1,3.6-1.4.2-2.8,0-4.2,0-.5,0-1,0-1.5-.1.2.1.5.2.7.3,1.4.3,2.8.3,4.2.3,1.4,0,2.7-.5,3.8-1.4,1.9-1.4,2.7-3.5,3.5-5.6ZM30,78.9s0,0,0,0c0,0,0,.1,0,.2.3.7.6,1.4.9,2,1,1.9,2.6,3.3,4.8,3.8,2.2.5,4.4.3,6.5-.4,0,0,.1,0,.2-.1-.2,0-.2,0-.3,0-.6,0-1.2.2-1.8.3-1.4.1-2.9.2-4.3,0-.9-.2-1.8-.4-2.6-.9-1.1-.8-2-1.8-2.6-3-.3-.6-.6-1.2-.9-1.8ZM96.8,69.9c0,0,0-.1,0-.1,0,0-.1,0-.2-.1-1.5-.8-3.1-1.4-4.8-1.4-1.8,0-3.5.4-5,1.5-1.3,1.1-2.3,2.4-3.2,3.8,0,0,0,.2-.1.2.2,0,.3-.2.4-.4.7-.8,1.2-1.7,2-2.4,1.9-2,4.3-2.7,7.1-2.4,1.2.1,2.2.5,3.3,1,.2,0,.4.2.6.3ZM15,36.3s0,0,0,0c0,.1,0,.2,0,.4-.3.8-.5,1.5-.8,2.3-.7,2.1-.9,4.2-.4,6.3.4,1.6.9,3.1,1.8,4.5.1.2.3.4,0,.5.3.6,1.6,2,2,2.1-.2-.2-.4-.4-.5-.7-.7-1.2-1.3-2.4-2-3.6-.5-.9-1-1.9-1.1-2.9-.1-1-.1-1.9-.1-2.9,0-1,.2-2.1.5-3,.2-.7.5-1.3.7-2,0-.3,0-.5,0-.8ZM45,73.6s0,0,0,0c0,0,0-.2-.1-.3-.7-1.2-1.6-2.2-2.6-3.1-1.5-1.3-3.2-2.1-5.2-2.1-1.7,0-3.2.5-4.6,1.3,0,0-.1,0-.2.1.2,0,.3,0,.4,0,.3-.1.6-.3,1-.4,1.6-.5,3.3-.8,5-.4,2,.5,3.5,1.7,4.8,3.2.5.6.9,1.1,1.4,1.7ZM66.8,88.6s0,0-.1,0c-.1.2-.3.4-.3.6-.4,1.2-.5,2.4-.3,3.7.1.7.4,1.4,1.1,1.8.9.5,1.9.7,2.9.8.1,0,.2,0,.4-.1,0,0,0,0,0-.1-.1,0-.3-.1-.4-.1-.9,0-1.6-.3-2.3-.8-.6-.5-1.1-1.1-1.1-1.9-.1-1.1,0-2.1.2-3.2,0-.2,0-.4.1-.6ZM111.9,53c-.7.6-1.4,1.1-2,1.6-.6.5-1.2,1.1-1.8,1.7-.6.6-1.2,1.1-1.6,1.8,1.9-2,4.1-3.7,6.2-5.4h-1.8c.7-.9,1.5-1.9,2.2-2.8-.2,0-.3,0-.4,0,.1-.4.3-.7.4-1,0,0,0,0-.1,0-.7,1.5-1.6,3-2.7,4.2h1.7ZM61.8,88.4h0c0,.2.1.3.2.5.1.4.3.8.3,1.2,0,.7,0,1.5,0,2.2,0,.7-.3,1.3-.9,1.8-.6.5-1.4.8-2.2,1-.2,0-.4.1-.6.2,0,0,0,0,0,0,0,0,.2,0,.3,0,.8,0,1.5-.2,2.2-.6.8-.4,1.4-1,1.6-1.9.2-1.1.2-2.1,0-3.2-.1-.5-.4-1-.8-1.4ZM112.8,15.8c0-.2,0-.4,0-.5-.3-1.4-.6-2.8-1-4.2-.5-1.5-1.3-2.8-2.5-3.8-.1-.1-.3-.2-.4-.3,0,0,0,0,0,0,1.2,1.2,2.1,2.5,2.7,4.1.6,1.5,1,3.1,1.4,4.7ZM16,52.9c2.1,1.5,4,3.1,5.9,4.8-1.5-1.7-3.3-3.2-5.1-4.6h0c.3-.1.7-.1,1-.1-.1-.2-.3-.4-.4-.6-.3.5-1,.1-1.5.4ZM15.6,13.7c.5-1.1.9-2.3,1.4-3.5.5-1.2,1.4-2.2,2.3-3.2-1.5.5-3.7,4.7-3.7,6.8ZM35.3,65s0,0,0,0c.2,0,.4-.2.5-.3,1.1-.5,2.1-1,3.2-1.6,1.3-.6,2.6-.7,4-.6.3,0,.7,0,1,.1-.1,0-.2-.1-.3-.2-1-.3-2.1-.4-3.1-.1-1.4.3-2.7.9-3.9,1.6-.5.3-1,.6-1.4.9ZM84.9,62.8c0,0,.1,0,.1,0,1.6-.3,3.2-.1,4.7.5,1.1.5,2.2,1.1,3.3,1.6.1,0,.3.1.4.2-.1-.2-.3-.3-.5-.4-1-.5-2.1-1.1-3.1-1.6-.9-.4-1.8-.7-2.8-.7-.7,0-1.4,0-2.1.4ZM101.1,93.5s0,0,0,0c-.1,0-.2.2-.3.3-.5.5-.9,1.1-1.2,1.7-.5,1.3-1,2.7-1.5,4,0,.1,0,.2-.1.4.1,0,.2-.2.2-.3.3-.7.6-1.5.9-2.2.6-1.3,1.1-2.6,2-3.7ZM24.4,56.4c.2-.6.5-1.1.7-1.6,0,0,0,0,0,0-.6.1-1.1.3-1.7.5.4.4.7.8,1.1,1.3ZM113.2,33.4s0,0,0,0c0,0,0,.1,0,.2-.1,1.1-.2,2.2,0,3.4.4,1.4.8,2.9,1.2,4.2,0,0,0,0,0-.2,0-1-.3-1.9-.7-2.9-.2-.7-.4-1.4-.4-2.1,0-.9,0-1.7,0-2.6ZM14.8,32.7s0,0,0,0v-1.6s0,0,0,0v1.6ZM29,94.9s0,0,.1,0c-.3-.4-.5-.8-.8-1.1,0,0,0,0-.1,0,.3.4.5.8.8,1.2ZM74.4,91.6s0,0,.1.1l.5-.6s0,0,0,0c-.2.2-.4.3-.6.5ZM113.5,24.5h0v1.4h0v-1.4ZM54.2,91s0,0-.1,0c.2.2.3.4.5.6h0c-.1-.3-.3-.5-.4-.7Z"/>
      <path class="cls-2" d="M44.8,96.6c1.9-3.1,3.9-6.1,6.8-8.4,0,.6.1,1.3.1,1.9,0,1,.4,1.9,1.1,2.6.5.5,1.1,1,1.6,1.4.3.2.5.5.4.9-.1.6,0,1.2.4,1.7.8,1.2,1.8,2.1,3,2.7,1.2.6,2.5,1.2,3.8,1.8.2,0,.3.2.5.2.7.2,1,.8,1,1.5,0,.8.1,1.6.1,2.4,0,.1,0,.2-.1.3-.5.5-1,.8-1.6,1.1-2.1.8-4.1,1.9-5.8,3.3-2,1.6-4,3.2-6,4.7-1.2.9-2.3,1.8-3.7,2.4-.9.4-1.9.7-2.9.6-.8,0-1.6,0-2.3,0-1.4,0-2.7-.6-3.8-1.5-2.4-1.8-3.4-4.2-3.4-7.1,0-1.5.4-3,.7-4.5,0-.2.2-.5.4-.7.6-.9,1.3-1.8,1.9-2.7,1.3-1.9,2.2-3.9,3.1-6,.1-.3.3-.5.4-.7,0,0,0,0,.1,0,0,.2,0,.5,0,.7-.6,2-1.1,3.9-1.7,5.9-.5,1.6-1.2,3.1-1.8,4.7,0,0,0,.1,0,.2,0,0,0,0,0,0,.3-.4.6-.8.9-1.2,1.6-2.4,2.7-5.1,3.5-7.9.7-2.3,1.4-4.7,2.3-6.9,1-2.4,2.2-4.6,3.9-6.5,2.4-2.8,5.4-4.8,8.9-5.9,3.1-1,6.4-1.3,9.6-1.1,3.3.2,6.5,1,9.4,2.6,3.5,1.9,6.1,4.6,8.1,8.1,1.4,2.5,2.4,5.2,3.3,8,.6,1.6,1.2,3.3,1.8,4.9.5,1.3,1.3,2.4,2.6,3.1.6.4,1.2.7,1.9,1.1.1,0,.2,0,.3.1,0,0,0,0,0,0-.3-.2-.5-.4-.8-.6-1.8-1.2-2.8-2.9-3.4-4.9-.6-2-1.2-4-1.8-5.9-.7-2.5-1.9-4.8-3.1-7-.4-.7-.9-1.4-1.3-2.1,0-.1-.2-.3-.2-.4,0,0,0,0,0,0,.3.3.6.6,1,.9.7.7,1.4,1.4,2.1,2.1,1.1,1,2.4,1.8,3.8,2.2,0,0,.2,0,.3.1,0,.2,0,.3-.2.4-1,1.9-1,3.9-.5,5.9.5,2.1,1.5,4,2.6,5.9.6.9,1.1,1.9,1.6,2.8.4.8.5,1.6.7,2.5.3,1.2.4,2.4.4,3.6-.2,3.9-2.7,7-6.1,7.8-1.5.4-3.1.5-4.6,0-1.4-.3-2.7-1-3.8-2-1.7-1.3-3.3-2.7-5-4.1-2.3-1.9-4.7-3.6-7.6-4.7-.5-.2-.9-.5-1.4-.8-.5-.3-.8-.8-.8-1.5,0-.8,0-1.6-.1-2.4,0-.2,0-.3.3-.4,1.5-.7,3-1.4,4.4-2.2,1.8-1,3-2.6,3.6-4.5.2-.5.6-.8,1-1.1.4-.3.8-.3,1.2,0,2,.9,3.7,2.1,5.3,3.5.9.8,1.9,1.6,3,2.1.3.1.5.2.8.3.9.2,1.9-.2,1.6-1.6-.2-1.2-.8-2.2-1.6-3-1-.9-1.9-1.8-3-2.7-1.5-1.2-2.7-2.7-3.7-4.3-.9-1.3-1.7-2.6-2.9-3.6-2.1-1.9-4.5-3.2-7.3-3.7-3.6-.7-7.1-.5-10.6.9-1.6.7-3.1,1.6-4.3,2.8-1.8,1.7-3.5,3.4-5,5.4-1.2,1.5-2.1,3.1-2.9,4.8-.2.5-.5,1-.7,1.5h0ZM82.3,102.3c-.1.1-.3.2-.4.3-.1.2-.1.4,0,.5.6.5,1.2,1.1,1.8,1.6.2.2.4,0,.5-.1.2-.2,0-.5,0-.6-.5-.5-1-1.1-1.6-1.6,0,0-.2,0-.3-.1ZM48.4,102.5s-.1,0-.2,0c-.7.4-1.2,1-1.7,1.7,0,0,0,.1,0,.2,0,.2,0,.4.2.5,0,0,.3,0,.4-.1.5-.4.9-.8,1.4-1.2.1-.1.3-.3.3-.5.1-.3,0-.6-.4-.6ZM88.8,110.5s0,0,0,0c-.4-.7-.9-1.2-1.6-1.5-.2,0-.4,0-.6.2-.1.2,0,.4,0,.5.3.3.6.6.9.9.2.2.4.3.7.4.3.1.6,0,.6-.4ZM44,109.3c0-.4-.4-.6-.7-.4-.6.3-1.1.8-1.4,1.5-.2.4,0,.6.4.6.1,0,.3,0,.4-.2.4-.4.8-.8,1.2-1.2,0,0,.1-.2.1-.3ZM46.9,109.5s.1,0,.2,0c.5-.5,1-.9,1.5-1.4,0,0,0-.2,0-.3-.2-.4-.5-.5-.9-.2,0,0,0,0,0,0-.4.4-.8.8-1.2,1.2-.2.3,0,.7.4.7ZM82.5,107.5c-.4,0-.6.3-.4.7.3.6.9,1.1,1.5,1.4.2.1.3,0,.4-.1.2-.3.2-.6,0-.8-.3-.3-.7-.6-1-.9-.1-.1-.3-.2-.4-.2ZM87.8,104.9s0-.1,0-.2c-.3-.3-.5-.6-.8-.9-.2-.2-.4-.2-.6,0-.2.2-.3.4-.1.6.3.3.6.6.9.9.3.2.7,0,.7-.5ZM43.3,105.4s.1,0,.2,0c.5-.2.8-.6,1-1,0,0,0-.3-.1-.4-.1-.1-.4-.3-.5-.2-.4.2-.8.6-1,1-.1.3.1.6.5.6Z"/>
      <path class="cls-2" d="M60.2,37.7c-1.9.2-3.7.4-5.5.6h0c6.4-1.5,12.8-1.3,19.1-.1,0,0,0,0,0,.1-.4,0-.8-.1-1.3-.1-2.5-.2-4.9-.3-7.4-.5-.2,0-.3,0-.5.2-.3.5-.4,1-.5,1.6-.3,2.5.7,4.5,2.2,6.3,1.5,1.8,3,3.5,4.6,5.3,1,1.1,1.8,2.3,2.2,3.7.5,1.7.4,3.4,0,5.1-.5,1.8-1,3.5-1.5,5.3-.5,1.8-.6,3.7-.4,5.6.2,1.6.4,3.3.4,5,0,.2,0,.4,0,.6-6-1.4-11.9-1.2-17.6,1,0,0,0,0,0,0,.1-.2.2-.4.3-.5.8-1.2,1.4-2.5,1.8-3.8,0-.2,0-.4,0-.7,0-1.2,0-2.4,0-3.6,0-.7-.3-1.4-.6-2.1-.9-2.5-2.2-4.9-3.3-7.4-.5-1.1-1-2.3-1.2-3.5-.3-1.6,0-3.1,1-4.4.5-.6,1.1-1.3,1.6-1.9,1.3-1.3,2.4-2.8,3.2-4.4,1-2,2-4,2.9-6.1.1-.3.2-.6.3-.9,0,0,0-.2,0-.3Z"/>
      <path class="cls-2" d="M33.5,38.6c.2.3.4.5.6.8.5.7,1.1,1.5,1.6,2.3,0,0,.1.2,0,.3-.1.7-.3,1.5-.5,2.2-1.6-.6-3-1.3-4.7-1.4.1.3.2.5.3.7.4.8.8,1.5,1.1,2.3.3.8.3.8-.4,1.3-1.5,1.1-3,2.3-4.3,3.7-.3.3-.5.6-.7.9,0,.1,0,.3-.1.5.2,0,.3,0,.5,0,.1,0,.3,0,.5,0-.1.1-.2.2-.3.3-.6.6-1.2,1.2-1.7,1.8-.2.2-.3.2-.5,0-.6-.5-1.1-1-1.7-1.5-.5-.5-1-1-1.5-1.5-.7-.7-1.1-1.5-1.6-2.3-1-1.8-1.9-3.7-2.4-5.8-.3-1.1-.4-2.2-.3-3.3,0-.2,0-.3.1-.5.2,0,.3.1.5.3.4.4.9.9,1.3,1.3.1.1.2.3.3.5,0,0,0,0,.1,0,0-.2,0-.3-.1-.5-.4-1.6-.9-3.1-1.3-4.7-.5-2.1-.6-4.3-.4-6.4.3-2.6.5-5.2.8-7.8.2-2,.4-3.9,1.2-5.8.3-.9.8-1.8,1.2-2.6.2-.4.5-.7.8-.9.7-.6,1.5-.8,2.4-.4,1.3.5,2.3,1.3,3.3,2.1,1.7,1.6,3.1,3.4,4.3,5.4,1.7,2.7,3.2,5.5,4.4,8.6.4,1.1.8,2.1.7,3.3,0,1-.3,2-.5,3.1-.3,1.4-.7,2.8-1,4.1,0,.2-.1.3-.3.2-.5-.1-1-.2-1.5-.3-.1,0-.3,0-.4,0,0,0,0,0,0,0ZM35.8,33.4s0,0,.1,0c0-.1.2-.3.2-.4,0-.7.2-1.3.2-2,0-.8,0-1.7-.3-2.5-.7-2.1-1.9-3.8-3.4-5.3-1-1-2-1.8-3.3-2.4-.1,0-.3-.1-.5-.2,0,0,0,0,0,0,0,0,.1.1.2.2.5.4,1.1.8,1.6,1.3,2.8,2.6,4.5,5.7,4.8,9.5,0,.5.2,1.1.3,1.6Z"/>
      <path class="cls-2" d="M108.5,41.3c.3-.3.5-.6.8-.8.3-.4.7-.7,1.1-1.1.2-.2.4-.2.4.1,0,.5,0,1.1,0,1.6-.4,3.4-1.7,6.4-3.5,9.3-.8,1.2-1.8,2.3-2.8,3.3-.2.2-.4.3-.6.4,0,0-.2.1-.1.2,0,0,0,.2.1.2.4.1.7.2,1.1.3,0,0,.2,0,.4,0-.4.5-.8.9-1.1,1.2-.5-.8-.9-1.6-1.4-2.3-.6-.7-1.3-1.3-1.9-1.9.3,0,.6,0,.9.1.1,0,.3,0,.3,0,0,0,0-.3,0-.3-.6-.7-1.1-1.4-1.8-2-1.1-1.1-2.3-2-3.6-2.9-.4-.3-.4-.3-.3-.8.4-1.1.7-2.1,1.5-3,0,0,0,0,0-.1-.8-.2-1.6,0-2.3.2-.7.3-1.4.6-2.1.8-.4.2-.4.1-.5-.3,0-.3-.2-.7-.2-1,0-.3,0-.6.1-.9.5-1,1.2-1.9,2-2.8.1-.2.3-.3.4-.5,0,0,0,0,0,0-.3,0-.6,0-.8.1-.4,0-.8.2-1.2.3-.3,0-.4,0-.5-.3-.2-.8-.5-1.6-.7-2.4-.3-1.3-.6-2.6-.9-3.9-.2-1,0-2.1.3-3.1,1.2-3.5,2.8-6.8,4.8-9.9,1.3-2,2.7-3.9,4.4-5.5.9-.8,1.9-1.5,3.1-1.9.9-.3,1.7,0,2.3.6.9.8,1.4,1.8,1.8,2.8.6,1.5,1,3.1,1.2,4.8.2,2.1.5,4.2.7,6.3.2,1.8.3,3.5.4,5.3,0,1.7-.3,3.4-.7,5.1-.3,1.3-.6,2.7-1,4,0,.1,0,.2,0,.3,0,0,0,0,0,0ZM92.3,33.6s0,0,0,0c0-.1,0-.2,0-.3.2-1,.3-2,.6-3,.5-2.5,1.6-4.6,3.7-6.2.9-.7,2-1.3,3-2,0,0,.2-.1.3-.2-.2,0-.3,0-.4,0-1,.3-1.9.8-2.7,1.3-1.5,1-2.9,2.2-3.9,3.8-.7,1.2-1.2,2.5-1.1,3.9,0,.7.2,1.4.3,2,0,.2.1.3.2.5Z"/>
      <path class="cls-2" d="M49.1,119.5c2.1-1.6,3.9-3.5,6.2-5,2.3-1.5,4.8-2.1,7.5-1.9,1.8.1,3.5.7,5.3,1.1,1.9.5,3.9,1,5.8,1.5,2.1.6,4,1.7,5.6,3.2.6.6.8.7-.2,1.1-1.4.6-2.9,1-4.4,1.2-1.6.3-3.3.3-4.9.2-.8,0-1.6.1-2.3.6-1,.5-2,.7-3.1.8-1.2,0-2.5,0-3.6-.4-.4-.1-.8-.3-1.1-.5-.5-.3-1-.4-1.6-.4-1.4,0-2.8,0-4.2-.1-1.7-.1-3.4-.5-5-1.4Z"/>
      <path class="cls-2" d="M90.5,81.9c-1.6,0-2.9-.3-3.9-1.1-.9-.7-1.5-1.8-1.9-2.8q-.5-1.3.1-2.6c.7-1.4,1.6-2.7,2.9-3.6,1.1-.8,2.4-1.3,3.8-1.3,2,0,3.7.8,5.2,2.1.2.1.3.4.3.6,0,2.4-.6,4.6-2.1,6.5-1.2,1.6-2.8,2.3-4.4,2.2ZM94.8,76c.1-1.1-.3-2-1.1-2.9-.3-.3-.6-.6-1-.9-1.8-1.3-4.4-1-5.9.7-1.1,1.2-1.4,2.6-1.1,4.2.4,2.7,2.9,4.3,5.5,3.7,1.9-.4,3.8-2.4,3.6-4.9Z"/>
      <path class="cls-2" d="M38.5,81.8c-.8,0-1.7,0-2.5-.3-1.3-.5-2.2-1.5-2.9-2.7-.9-1.6-1.3-3.4-1.5-5.3,0-.5,0-.8.5-1.2,1.2-.9,2.5-1.6,4-1.9,2.4-.3,4.3.6,6,2.3,1,1,1.8,2.3,2.3,3.6,0,.1,0,.2,0,.3-.3,1-.7,2-1.3,2.8-.7.9-1.5,1.7-2.6,2-.7.2-1.4.2-2.1.3,0,0,0,0,0,0ZM38.7,80.9c2.2.2,4.4-1.9,4.5-4.5,0-3-2.5-4.9-4.9-4.9-2.5,0-4.3,2.4-4.3,4.1,0,3.2,1.9,5.3,4.8,5.3Z"/>
      <path class="cls-2" d="M26.8,7.1c.2.1.4.2.5.3,1.9,1.1,3.5,2.6,5.1,4.1,4.5,4.2,8,9.1,10.9,14.5.7,1.3,1.4,2.6,2,4,.8,2,1.9,3.9,2.8,5.8.1.3.3.6.4.9.2.3.1.6-.1.8-.1.1-.2.3-.4.5,0,0,0,0,0,0-.4-.9-.7-1.8-1.1-2.7-.8-1.9-1.4-3.8-2.3-5.6-1.2-2.4-2.6-4.8-4-7.1-1.6-2.7-3.4-5.3-5.4-7.7-1.9-2.3-4-4.3-6.3-6.2-.6-.5-1.3-.9-1.9-1.3,0,0-.2-.1-.2-.2h0Z"/>
      <path class="cls-2" d="M80.4,37.9c0,0-.1,0-.2-.1-.7-.6-.7-.7-.3-1.6.7-1.4,1.5-2.8,2.2-4.3.2-.4.3-.9.5-1.3.3-.8.6-1.7,1-2.4,1.8-3.6,3.9-7.1,6.3-10.3,2.4-3.2,5.1-6.2,8.3-8.7.9-.7,1.8-1.3,2.7-1.9.1,0,.3-.2.4-.2,0,0-.1.1-.2.2-1,.7-2,1.4-2.9,2.1-2.2,1.8-4.2,3.8-6,6.1-4,5-7.2,10.4-9.7,16.3-.8,1.9-1.4,3.9-2.2,5.8,0,0,0,.2-.1.3Z"/>
      <path class="cls-2" d="M28.6,92.3c-.7,0-1.3-.6-1.3-1.3,0-.9-.2-1.7-.5-2.6-.5-1.2-1.1-2.2-2-3.2,0,0-.2-.2-.3-.3-.3-.3-.4-.4-.2-.8.3-.5.8-1.1,1.1-1.6.9-1.6,1.4-3.3,1.5-5.1,0-2.2,0-4.4.1-6.6,0-1.6.2-3.3.3-4.9,0-.3,0-.7.1-1,0,.6,0,1.3,0,1.9-.2,2.7-.2,5.3,0,8,0,1.1,0,2.1,0,3.2,0,1-.2,1.9-.5,2.9-.2.5-.3.9,0,1.4,0,0,0,.3-.1.3-.2.2-.6.4-.5.8,0,0-.2.2-.3.2-.4.1-.7.2-1.1.4-.4.2-.4.3-.1.7.3.3.6.6.8.9,1.2,1.3,2,2.9,2.3,4.7.1.6.2,1.1.6,1.6,0,0,0,.1,0,.2Z"/>
      <path class="cls-2" d="M101.5,65.1c0,.7.2,1.4.3,2.1.3,2.7.3,5.5.3,8.2,0,1.4,0,2.8.3,4.2.4,1.7,1.1,3.3,2.2,4.6.4.5.4.6-.1,1-1.4,1-1.9,2.4-1.8,4.1,0,.6.1,1.3.2,1.9,0,.4,0,.4-.4.5-.3,0-.5.1-.8.2,0,0,0,0,0,0,.4-.4.5-.8.4-1.3-.2-1.1-.1-2.2.5-3.2.5-.8,1.1-1.6,1.8-2.4,0,0,.2-.2.3-.3-.4-.4-.9-.8-1.5-.8-.2,0-.3-.1-.3-.4,0-.2-.1-.3-.3-.5-.2-.2-.3-.4-.2-.7,0-.2,0-.5,0-.7-.2-.7-.5-1.5-.6-2.2-.1-.9-.2-1.9,0-2.8.2-3,.2-5.9,0-8.9,0-.8-.1-1.7-.2-2.5,0,0,0,0,0,0Z"/>
      <path class="cls-2" d="M73.9,86.3c-.3-.3-.6-.5-.9-.8-1.5-1.2-3.3-1.9-5.2-2.3-1.7-.3-3.4-.3-5.1-.2-1.6,0-3.1.4-4.6,1.2-.9.5-1.8,1-2.6,1.8,0,0-.2.2-.3.2,0-.1.1-.2.2-.3,1-1.2,2.3-2.1,3.7-2.6,2.2-.8,4.4-1.1,6.8-.9,2,.2,3.8.7,5.5,1.6.9.5,1.7,1.1,2.4,2,0,0,.1.1.2.2,0,0,0,0,0,0,0,0,0,0,0,0Z"/>
      <path class="cls-2" d="M42.3,82.3c1.4-1,2.4-2.4,2.9-4,0,0,0,0,.1,0,.4.7.8,1.4,1.2,2.1-1.3.9-2.7,1.5-4.2,1.9Z"/>
      <path class="cls-2" d="M86.4,82.3c-1.4-.4-2.8-1-4-1.9.4-.8.7-1.5,1.2-2.3.6,1.7,1.4,3.2,2.9,4.2Z"/>
      <path class="cls-2" d="M99.2,78c-.7,2.1-1.6,4.2-3.5,5.6-1.1.8-2.4,1.3-3.8,1.4-1.4,0-2.8,0-4.2-.3-.2,0-.5-.1-.7-.3.5,0,1,.1,1.5.1,1.4,0,2.8.1,4.2,0,2.2-.3,3.9-1.6,5.1-3.6.4-.8.8-1.6,1.2-2.4,0-.2.2-.4.3-.6,0,0,0,0,0,0Z"/>
      <path class="cls-2" d="M30,78.9c.3.6.6,1.2.9,1.8.6,1.2,1.5,2.2,2.6,3,.8.6,1.7.8,2.6.9,1.4.2,2.9.2,4.3,0,.6,0,1.2-.2,1.8-.3,0,0,.2,0,.3,0-.1,0-.2.1-.2.1-2.1.7-4.3.9-6.5.4-2.2-.5-3.7-1.8-4.8-3.8-.3-.6-.6-1.3-.9-2,0,0,0-.1,0-.2,0,0,0,0,0,0Z"/>
      <path class="cls-2" d="M96.8,69.9c-.2-.1-.4-.2-.6-.3-1.1-.5-2.1-.9-3.3-1-2.7-.3-5.1.4-7.1,2.4-.7.7-1.3,1.6-2,2.4-.1.1-.2.3-.4.4,0,0,0-.2.1-.2.9-1.4,1.9-2.7,3.2-3.8,1.5-1.2,3.2-1.6,5-1.5,1.8,0,3.3.7,4.8,1.4,0,0,.1,0,.2.1,0,0,0,0,0,.1Z"/>
      <path class="cls-2" d="M15,36.3c0,.3,0,.6,0,.8-.2.7-.5,1.4-.7,2-.3,1-.5,2-.5,3,0,1,0,1.9.1,2.9.1,1.1.6,2,1.1,2.9.6,1.2,1.3,2.4,2,3.6.1.2.3.4.5.7-.4-.1-1.7-1.5-2-2.1.3,0,.2-.3,0-.5-.9-1.4-1.4-2.9-1.8-4.5-.5-2.1-.3-4.2.4-6.3.3-.8.5-1.5.8-2.3,0-.1,0-.2,0-.4,0,0,0,0,0,0Z"/>
      <path class="cls-2" d="M45,73.6c-.5-.6-.9-1.2-1.4-1.7-1.3-1.5-2.8-2.7-4.8-3.2-1.7-.4-3.4-.2-5,.4-.3.1-.6.3-1,.4-.1,0-.3,0-.4,0,0,0,.1,0,.2-.1,1.5-.7,2.9-1.2,4.6-1.3,2,0,3.7.7,5.2,2.1,1,.9,1.9,1.9,2.6,3.1,0,0,0,.2.1.3,0,0,0,0,0,0Z"/>
      <path class="cls-2" d="M66.8,88.6c0,.2,0,.4-.1.6-.3,1-.3,2.1-.2,3.2,0,.8.5,1.4,1.1,1.9.7.5,1.4.8,2.3.8.1,0,.3,0,.4.1,0,0,0,0,0,.1-.1,0-.2.1-.4.1-1,0-2-.3-2.9-.8-.7-.4-1-1.1-1.1-1.8-.2-1.2-.1-2.5.3-3.7,0-.2.2-.4.3-.6,0,0,0,0,.1,0Z"/>
      <path class="cls-2" d="M111.9,53h-1.7c1.2-1.3,2-2.7,2.7-4.2,0,0,0,0,.1,0-.1.3-.3.7-.4,1,.1,0,.2,0,.4,0-.7.9-1.4,1.8-2.2,2.8h1.8c-2.2,1.7-4.3,3.4-6.2,5.4.4-.7,1-1.3,1.6-1.8.6-.6,1.2-1.1,1.8-1.7.6-.5,1.3-1,2-1.6Z"/>
      <path class="cls-2" d="M61.8,88.4c.4.4.6.8.8,1.4.3,1.1.3,2.1,0,3.2-.2.9-.8,1.5-1.6,1.9-.7.4-1.4.5-2.2.6,0,0-.2,0-.3,0,0,0,0,0,0,0,.2,0,.4-.1.6-.2.8-.2,1.5-.4,2.2-1,.5-.5.9-1.1.9-1.8,0-.7,0-1.5,0-2.2,0-.4-.2-.8-.3-1.2,0-.1-.1-.3-.2-.4h0Z"/>
      <path class="cls-2" d="M112.8,15.8c-.4-1.6-.8-3.2-1.4-4.7-.6-1.5-1.6-2.9-2.7-4.1,0,0,0,0,0,0,.1.1.3.2.4.3,1.3,1,2.1,2.3,2.5,3.8.4,1.4.7,2.8,1,4.2,0,.2,0,.4,0,.5Z"/>
      <path class="cls-2" d="M16,52.9c.5-.3,1.2,0,1.5-.4.1.2.3.4.4.6h-1.1c1.8,1.5,3.6,3,5.1,4.7-1.9-1.7-3.8-3.3-5.9-4.8Z"/>
      <path class="cls-2" d="M15.6,13.7c0-2,2.2-6.2,3.7-6.8-.9,1-1.7,2-2.3,3.2-.5,1.2-1,2.4-1.4,3.5Z"/>
      <path class="cls-2" d="M35.3,65c.5-.3,1-.6,1.4-.9,1.2-.7,2.5-1.3,3.9-1.6,1.1-.2,2.1-.2,3.1.1.1,0,.2,0,.3.2-.3,0-.7,0-1-.1-1.4-.2-2.7,0-4,.6-1.1.5-2.1,1-3.2,1.6-.2,0-.4.2-.5.3,0,0,0,0,0,0Z"/>
      <path class="cls-2" d="M84.9,62.8c.7-.3,1.4-.4,2.1-.4,1,0,1.9.3,2.8.7,1,.5,2.1,1.1,3.1,1.6.2.1.4.2.5.4-.1,0-.3-.1-.4-.2-1.1-.5-2.2-1.2-3.3-1.6-1.5-.6-3.1-.8-4.7-.5,0,0,0,0-.1,0Z"/>
      <path class="cls-2" d="M101.1,93.5c-.9,1.1-1.5,2.4-2,3.7-.3.7-.6,1.5-.9,2.2,0,.1-.1.2-.2.3,0-.1,0-.2.1-.4.5-1.3,1-2.7,1.5-4,.3-.7.7-1.2,1.2-1.7.1,0,.2-.2.3-.3,0,0,0,0,0,0Z"/>
      <path class="cls-2" d="M24.4,56.4c-.4-.4-.7-.8-1.1-1.3.6-.2,1.2-.3,1.7-.5,0,0,0,0,0,0-.2.5-.5,1.1-.7,1.6Z"/>
      <path class="cls-2" d="M113.2,33.4c0,.9,0,1.7,0,2.6,0,.7.2,1.4.4,2.1.3.9.6,1.9.7,2.9,0,0,0,.2,0,.2-.4-1.3-.8-2.8-1.2-4.2-.3-1.1-.2-2.2,0-3.4,0,0,0-.1,0-.2,0,0,0,0,0,0Z"/>
      <path class="cls-2" d="M14.8,32.7v-1.6s0,0,0,0v1.6s0,0,0,0Z"/>
      <path class="cls-2" d="M29,94.9c-.3-.4-.5-.8-.8-1.2,0,0,0,0,.1,0,.3.4.5.8.8,1.1,0,0,0,0-.1,0Z"/>
      <path class="cls-2" d="M74.4,91.6c.2-.2.4-.3.6-.5,0,0,0,0,0,0l-.5.6s0,0-.1-.1Z"/>
      <path class="cls-2" d="M113.5,24.5v1.4h0v-1.4h0Z"/>
      <path class="cls-2" d="M54.2,91c.1.2.3.4.4.6h0c-.2-.1-.3-.3-.5-.5,0,0,0,0,.1,0Z"/>
      <path class="cls-1" d="M82.3,102.3c.1,0,.2,0,.3.1.5.5,1.1,1,1.6,1.6.2.2.3.4,0,.6-.1.2-.4.3-.5.1-.6-.5-1.2-1.1-1.8-1.6-.2-.1-.2-.4,0-.5.1-.1.2-.2.4-.3Z"/>
      <path class="cls-1" d="M48.4,102.5c.4,0,.6.3.4.6,0,.2-.2.3-.3.5-.4.4-.9.8-1.4,1.2-.1,0-.4.2-.4.1-.1-.1-.2-.3-.2-.5,0,0,0-.1,0-.2.4-.7.9-1.3,1.7-1.7,0,0,.2,0,.2,0Z"/>
      <path class="cls-1" d="M88.8,110.5c0,.4-.2.6-.6.4-.2-.1-.5-.3-.7-.4-.3-.3-.6-.6-.9-.9-.1-.1-.2-.3,0-.5.1-.2.4-.3.6-.2.7.3,1.2.9,1.6,1.5,0,0,0,0,0,0Z"/>
      <path class="cls-1" d="M44,109.3c0,0,0,.2-.1.3-.4.4-.8.8-1.2,1.2-.1,0-.3.2-.4.2-.4,0-.6-.2-.4-.6.3-.6.8-1.1,1.4-1.5.3-.2.7,0,.7.4Z"/>
      <path class="cls-1" d="M46.9,109.5c-.4,0-.6-.4-.4-.7.4-.4.8-.8,1.2-1.2,0,0,0,0,0,0,.4-.3.7-.2.9.2,0,0,0,.2,0,.3-.5.5-1,.9-1.5,1.4,0,0-.1,0-.2,0Z"/>
      <path class="cls-1" d="M82.5,107.5c0,0,.3,0,.4.2.4.3.7.6,1,.9.3.3.3.6,0,.8-.1.2-.3.2-.4.1-.6-.4-1.1-.8-1.5-1.4-.2-.3,0-.6.4-.7Z"/>
      <path class="cls-1" d="M87.8,104.9c0,.4-.4.7-.7.5-.3-.2-.6-.6-.9-.9-.2-.2,0-.5.1-.6.2-.2.4-.2.6,0,.3.3.5.6.8.9,0,0,0,.2,0,.2Z"/>
      <path class="cls-1" d="M43.3,105.4c-.3,0-.6-.3-.5-.6.2-.5.5-.8,1-1,.1,0,.4,0,.5.2,0,0,.2.3.1.4-.2.4-.5.8-1,1,0,0-.2,0-.2,0Z"/>
      <path class="cls-1" d="M35.8,33.4c0-.5-.2-1.1-.3-1.6-.4-3.8-2-7-4.8-9.5-.5-.5-1.1-.8-1.6-1.3,0,0-.1-.1-.2-.2,0,0,0,0,0,0,.2,0,.3.1.5.2,1.3.6,2.3,1.4,3.3,2.4,1.5,1.5,2.7,3.3,3.4,5.3.3.8.3,1.6.3,2.5,0,.7-.1,1.3-.2,2,0,.1-.1.3-.2.4,0,0,0,0-.1,0Z"/>
      <path class="cls-1" d="M92.3,33.6c0-.2-.1-.3-.2-.5,0-.7-.2-1.4-.3-2-.1-1.4.4-2.7,1.1-3.9.9-1.6,2.3-2.8,3.9-3.8.8-.6,1.7-1,2.7-1.3.1,0,.2,0,.4,0,0,0-.2.1-.3.2-1,.7-2,1.3-3,2-2,1.6-3.2,3.7-3.7,6.2-.2,1-.4,2-.6,3,0,.1,0,.2,0,.3,0,0,0,0,0,0Z"/>
      <path class="cls-1" d="M94.8,76c.2,2.5-1.7,4.4-3.6,4.9-2.6.6-5.1-1.1-5.5-3.7-.3-1.6,0-3,1.1-4.2,1.5-1.6,4.1-2,5.9-.7.4.2.7.5,1,.9.8.8,1.2,1.8,1.1,2.9ZM92.2,73.9c-.7,0-1.2.5-1.2,1.1,0,.7.5,1.2,1.1,1.2.7,0,1.2-.5,1.2-1.1,0-.6-.6-1.2-1.2-1.2Z"/>
      <path class="cls-1" d="M38.7,80.9c-2.9,0-4.9-2.1-4.8-5.3,0-1.7,1.9-4.1,4.3-4.1,2.4,0,5,1.9,4.9,4.9,0,2.6-2.3,4.7-4.5,4.5ZM40.8,76.2c.7,0,1.2-.5,1.2-1.2,0-.5-.6-1.2-1.2-1.2-.5,0-1.2.7-1.2,1.2,0,.6.6,1.2,1.2,1.2Z"/>
      <path class="cls-2" d="M92.2,73.9c.6,0,1.2.6,1.2,1.2,0,.6-.6,1.1-1.2,1.1-.6,0-1.1-.5-1.1-1.2,0-.6.5-1.1,1.2-1.1Z"/>
      <path class="cls-2" d="M40.8,76.2c-.6,0-1.2-.6-1.2-1.2,0-.5.8-1.2,1.2-1.2.5,0,1.2.7,1.2,1.2,0,.7-.5,1.2-1.2,1.2Z"/>
    </g>
  </g>
</svg>