<svg data-name="Layer 1" xmlns="http://www.w3.org/2000/svg" viewBox="0 0 149.53 13.3"><path d="M43.42 5.85H4.49c-.14-.37-.27-.73-.41-1.1C5.51 4.2 6.9 3.28 8.36 3.14 36.93.44 65.54-.8 94.23.55c10.42.49 20.86.68 31.29 1.05 2.29.08 4.57.34 6.96 1.5-3.04.52-6.09 1.03-10.48 1.78 10 1.3 18.76 2.43 27.52 3.56-.03.48-.07.96-.1 1.44-.86.07-1.73.19-2.59.21-43.05 1.04-86.1 2.08-129.16 3.09-4.47.11-8.96.23-13.41-.06-1.46-.1-2.85-1.49-4.26-2.28 1.4-.91 2.76-2.5 4.22-2.61 11.06-.85 22.14-1.43 33.22-2.05 1.97-.11 3.96-.02 5.94-.02.01-.1.03-.21.04-.31Z" style="fill:#000;stroke-width:0"/></svg>